<svg width="31" height="31" viewBox="0 0 31 31" fill="none" xmlns="http://www.w3.org/2000/svg">
<path d="M15.5001 29.6966C23.3378 29.6966 29.6916 23.34 29.6916 15.4987C29.6916 7.6574 23.3378 1.30078 15.5001 1.30078C7.66234 1.30078 1.30859 7.6574 1.30859 15.4987C1.30859 23.34 7.66234 29.6966 15.5001 29.6966Z" stroke="#232A30"/>
<path d="M22.7124 12.6362C22.7008 12.0518 22.5877 11.4736 22.378 10.9264C22.1927 10.458 21.9097 10.0326 21.5469 9.67749C21.1842 9.32232 20.7498 9.04517 20.2715 8.86375C19.7125 8.65862 19.1221 8.5479 18.5253 8.53629C17.7553 8.50065 17.5103 8.49219 15.5562 8.49219C13.6021 8.49219 13.3571 8.50065 12.5896 8.53327C11.9928 8.54464 11.4023 8.65537 10.8434 8.86073C10.3618 9.03773 9.92577 9.31617 9.56617 9.67635C9.20091 10.0284 8.91798 10.4539 8.73689 10.9234C8.52741 11.4706 8.41433 12.0488 8.40246 12.6331C8.36544 13.3859 8.35742 13.6276 8.35742 15.541C8.35742 17.4544 8.36606 17.6942 8.39938 18.4458C8.41096 19.0302 8.52405 19.6084 8.7338 20.1556C8.91906 20.6238 9.20203 21.0491 9.56464 21.4041C9.92725 21.7592 10.3615 22.0363 10.8397 22.2176C11.3986 22.4228 11.9891 22.5335 12.5859 22.5451C13.3534 22.5783 13.5984 22.5862 15.5525 22.5862C17.5066 22.5862 17.7516 22.5777 18.5191 22.5451C19.116 22.5338 19.7065 22.4231 20.2653 22.2176C20.7438 22.0366 21.1783 21.7596 21.541 21.4045C21.9038 21.0494 22.1868 20.624 22.3718 20.1556C22.5813 19.6083 22.6943 19.0302 22.7063 18.4458C22.7402 17.6942 22.7482 17.4544 22.7482 15.541C22.7482 13.6276 22.7482 13.3877 22.7118 12.6362H22.7124ZM21.4167 18.3909C21.4122 18.8375 21.3287 19.2801 21.1699 19.6989C21.05 20.0028 20.8665 20.2789 20.6313 20.5093C20.396 20.7398 20.1141 20.9196 19.8038 21.0371C19.376 21.1924 18.9241 21.2742 18.4679 21.2788C17.7084 21.312 17.4807 21.3199 15.5605 21.3199C13.6404 21.3199 13.4096 21.3114 12.6531 21.2788C12.1969 21.2745 11.7449 21.1927 11.3173 21.0371C11.0048 20.9248 10.7222 20.7449 10.4905 20.5109C10.2521 20.2835 10.0685 20.0069 9.95304 19.7013C9.79444 19.2825 9.71094 18.8399 9.70623 18.3933C9.67229 17.6495 9.66427 17.4266 9.66427 15.5464C9.66427 13.6663 9.67291 13.4403 9.70623 12.6996C9.7106 12.2529 9.79411 11.8103 9.95304 11.3916C10.0676 11.085 10.2523 10.8081 10.4929 10.582C10.7251 10.3487 11.0076 10.1691 11.3197 10.0564C11.7475 9.90113 12.1994 9.81937 12.6556 9.81471C13.4151 9.78148 13.6428 9.77362 15.563 9.77362C17.4832 9.77362 17.7139 9.78208 18.4704 9.81471C18.9266 9.81903 19.3786 9.9008 19.8063 10.0564C20.1187 10.1685 20.4013 10.3482 20.6331 10.582C20.8715 10.8094 21.0551 11.0859 21.1705 11.3916C21.3291 11.8104 21.4125 12.2529 21.4173 12.6996C21.4512 13.4433 21.4593 13.6663 21.4593 15.5464C21.4593 17.4266 21.45 17.6471 21.4167 18.3909Z" fill="#232A30"/>
<path d="M15.5552 11.918C14.8239 11.918 14.1089 12.1303 13.5008 12.5282C12.8927 12.926 12.4188 13.4915 12.1389 14.1531C11.859 14.8147 11.7858 15.5428 11.9285 16.2451C12.0712 16.9475 12.4233 17.5926 12.9405 18.099C13.4576 18.6054 14.1165 18.9502 14.8338 19.0899C15.5511 19.2296 16.2946 19.1579 16.9703 18.8839C17.646 18.6099 18.2235 18.1458 18.6298 17.5503C19.0362 16.9549 19.253 16.2549 19.253 15.5387C19.2527 14.5785 18.863 13.6578 18.1696 12.9788C17.4762 12.2999 16.5359 11.9183 15.5552 11.918ZM15.5552 17.8877C15.0808 17.8877 14.6169 17.75 14.2224 17.4919C13.8279 17.2338 13.5204 16.8669 13.3389 16.4377C13.1573 16.0084 13.1098 15.5361 13.2023 15.0805C13.2949 14.6248 13.5234 14.2063 13.8589 13.8777C14.1944 13.5492 14.6219 13.3255 15.0872 13.2349C15.5526 13.1442 16.0349 13.1908 16.4733 13.3685C16.9116 13.5463 17.2863 13.8474 17.5499 14.2337C17.8135 14.62 17.9542 15.0741 17.9542 15.5387C17.9542 16.1617 17.7015 16.7592 17.2516 17.1997C16.8017 17.6403 16.1915 17.8877 15.5552 17.8877Z" fill="#232A30"/>
<path d="M20.2628 11.7755C20.2628 11.9428 20.2121 12.1063 20.1172 12.2454C20.0223 12.3845 19.8874 12.493 19.7296 12.557C19.5717 12.621 19.398 12.6377 19.2304 12.6051C19.0629 12.5725 18.909 12.4919 18.7882 12.3736C18.6674 12.2553 18.5851 12.1046 18.5518 11.9405C18.5184 11.7765 18.5355 11.6064 18.6009 11.4518C18.6663 11.2973 18.777 11.1652 18.9191 11.0722C19.0611 10.9793 19.2281 10.9297 19.399 10.9297C19.6281 10.9297 19.8478 11.0188 20.0098 11.1774C20.1718 11.3361 20.2628 11.5512 20.2628 11.7755Z" fill="#232A30"/>
</svg>
